<?xml version="1.0" encoding="UTF-8"?>
<svg id="Capa_1" data-name="Capa 1" xmlns="http://www.w3.org/2000/svg" version="1.1" viewBox="0 0 527.34 253.91">
  <defs>
    <style>
      .cls-1 {
        fill: #1d1d1b;
        stroke-width: 0px;
      }
    </style>
  </defs>
  <g>
    <path class="cls-1" d="M432.83,48.65c3.43,0,6.41-.47,8.84-1.4,2.49-.95,4.42-2.31,5.75-4.05,1.34-1.77,2.02-3.88,2.02-6.29,0-2.25-.5-4.11-1.5-5.53-.98-1.4-2.29-2.49-3.89-3.26-1.53-.72-3.23-1.31-5.04-1.73-1.79-.42-3.59-.77-5.36-1.06-1.73-.29-3.33-.65-4.76-1.1-1.35-.42-2.44-1.01-3.25-1.75-.72-.66-1.08-1.58-1.08-2.8,0-1.57.68-2.84,2.1-3.87,1.47-1.08,3.86-1.62,7.11-1.62,1.86,0,3.74.25,5.61.73,1.84.48,3.58,1.29,5.19,2.39l.76.52,3.06-5.63-.64-.42c-1.67-1.11-3.81-2.02-6.36-2.69-2.53-.67-5.1-1.01-7.63-1.01-3.35,0-6.23.5-8.58,1.48-2.39,1-4.24,2.4-5.49,4.18-1.26,1.79-1.9,3.83-1.9,6.08s.5,4.26,1.49,5.71c.97,1.42,2.26,2.55,3.83,3.36,1.51.78,3.2,1.38,5.04,1.78,1.77.39,3.58.73,5.39,1.03,1.76.29,3.37.64,4.78,1.04,1.33.37,2.4.93,3.2,1.64.72.64,1.07,1.52,1.07,2.69,0,1.62-.67,2.88-2.05,3.87-1.45,1.03-3.93,1.55-7.37,1.55-2.56,0-5.04-.41-7.36-1.23s-4.26-1.79-5.74-2.9l-.76-.57-3.14,5.49.53.45c1.68,1.42,4,2.62,6.9,3.54,2.88.92,5.98,1.38,9.2,1.38Z"/>
    <path class="cls-1" d="M475.85,40.79c-1.36,1.18-3.03,1.76-5.13,1.76-1.91,0-3.32-.51-4.3-1.55-.98-1.05-1.48-2.59-1.48-4.59V14.39h11.64v-5.96h-11.64V0h-6.83v8.44h-6.84v5.96h6.84v22.29c0,3.75,1.06,6.71,3.15,8.81,2.09,2.09,5.08,3.15,8.88,3.15,1.58,0,3.14-.23,4.64-.69,1.54-.47,2.89-1.22,3.99-2.22l.47-.42-2.57-5.25-.82.71Z"/>
    <path class="cls-1" d="M494.5,46.74c2.53,1.26,5.52,1.91,8.88,1.91,3.53,0,6.68-.84,9.35-2.49,1.36-.84,2.55-1.87,3.56-3.06v5.18h6.61V8.44h-6.83v20.83c0,2.77-.5,5.16-1.48,7.12-.96,1.92-2.37,3.41-4.17,4.41-1.83,1.02-4.03,1.53-6.54,1.53-3.39,0-6.04-.95-7.88-2.84-1.84-1.89-2.78-4.79-2.78-8.62V8.44h-6.83v23.02c0,3.76.71,6.95,2.1,9.49,1.41,2.56,3.42,4.51,6,5.8Z"/>
    <path class="cls-1" d="M451.49,76.61c-1.25-1.43-2.69-2.62-4.32-3.54-2.76-1.57-5.92-2.37-9.39-2.37-3.76,0-7.19.86-10.19,2.54-3.01,1.69-5.4,4.09-7.12,7.12-1.71,3.02-2.58,6.59-2.58,10.59s.87,7.51,2.58,10.55c1.71,3.05,4.11,5.47,7.12,7.19,3,1.71,6.43,2.58,10.19,2.58,3.52,0,6.71-.81,9.47-2.4,1.69-.98,3.18-2.24,4.46-3.77v5.81h6.61v-55.63h-6.83v21.33ZM445.04,103.28c-2.02,1.16-4.35,1.74-6.9,1.74s-4.79-.59-6.78-1.74c-1.99-1.15-3.6-2.81-4.78-4.92-1.18-2.12-1.78-4.61-1.78-7.41s.6-5.35,1.78-7.44,2.79-3.74,4.78-4.89c1.99-1.16,4.27-1.74,6.78-1.74s4.87.59,6.9,1.74c2.01,1.16,3.62,2.8,4.77,4.88,1.16,2.09,1.75,4.6,1.75,7.45s-.59,5.3-1.75,7.42c-1.15,2.1-2.76,3.76-4.77,4.91Z"/>
    <rect class="cls-1" x="471.05" y="71.06" width="6.83" height="39.85"/>
    <path class="cls-1" d="M471.23,56.57c-.89.86-1.35,1.93-1.35,3.18s.45,2.32,1.34,3.21c.88.89,1.99,1.34,3.28,1.34s2.46-.45,3.33-1.35c.85-.88,1.29-1.98,1.29-3.27s-.46-2.31-1.35-3.15c-1.78-1.65-4.76-1.67-6.53.05Z"/>
    <path class="cls-1" d="M524.72,80.46c-1.74-3-4.17-5.4-7.22-7.14-3.05-1.74-6.58-2.62-10.48-2.62s-7.35.87-10.38,2.58c-3.02,1.72-5.45,4.12-7.22,7.14-1.76,3.02-2.66,6.56-2.66,10.53s.89,7.38,2.66,10.45,4.19,5.51,7.21,7.25c3.03,1.74,6.52,2.62,10.38,2.62s7.37-.88,10.45-2.62c3.08-1.74,5.52-4.17,7.26-7.22,1.74-3.05,2.62-6.58,2.62-10.49s-.88-7.49-2.62-10.49ZM520.44,90.95c0,2.8-.59,5.3-1.76,7.42-1.15,2.11-2.75,3.76-4.74,4.92-2,1.16-4.33,1.74-6.93,1.74s-4.84-.58-6.81-1.74c-1.97-1.16-3.57-2.81-4.75-4.92-1.18-2.12-1.78-4.61-1.78-7.41s.6-5.35,1.78-7.44c1.18-2.09,2.79-3.73,4.78-4.89,1.99-1.16,4.3-1.74,6.86-1.74s4.86.59,6.86,1.74c1.99,1.15,3.59,2.8,4.74,4.88,1.16,2.09,1.75,4.6,1.75,7.45Z"/>
  </g>
  <path class="cls-1" d="M190.83,253.91V0h-40.34v108.23h-52.19c-1.49,0-2.45-.37-2.88-1.12-.42-.75-.96-1.87-1.6-3.36L49.95,0H9.6l39.7,91.9c4.06,9.39,7.63,16.71,10.73,21.93,3.1,5.23,7.31,9.13,12.65,11.69-5.97,2.35-10.73,6.19-14.25,11.53-3.52,5.34-7.63,12.81-12.33,22.41L0,253.91h42.91l50.91-106.62c.64-1.49,1.18-2.56,1.6-3.2.43-.64,1.5-.96,3.2-.96h51.87v110.78h40.34Z"/>
  <path class="cls-1" d="M455.41,252.24l-90.62-201.28c-2.73-5.57-10.21-21.82-16.02-34.49-4.6-10.04-14.63-16.47-25.67-16.47h-103.04v252.24h40.34V34.63h51.87c1.71,0,2.77.32,3.2.96.42.64.96,1.71,1.6,3.2l30.3,67.76h-57.71v34.9h73.31l49.53,110.78h42.91Z"/>
</svg>