<?xml version="1.0" encoding="UTF-8"?>
<svg xmlns="http://www.w3.org/2000/svg" version="1.1" viewBox="0 0 455.4 253.9">
  <defs>
    <style>
      .cls-1 {
        fill: #c7febc;
      }
    </style>
  </defs>
  <!-- Generator: Adobe Illustrator 28.7.2, SVG Export Plug-In . SVG Version: 1.2.0 Build 154)  -->
  <g>
    <g id="Capa_1">
      <g id="Capa_1-2" data-name="Capa_1">
        <path class="cls-1" d="M190.8,253.9V0h-40.3v108.2h-52.2c-1.5,0-2.4-.4-2.9-1.1-.4-.8-1-1.9-1.6-3.4L50,0H9.6l39.7,91.9c4.1,9.4,7.6,16.7,10.7,21.9,3.1,5.2,7.3,9.1,12.6,11.7-6,2.3-10.7,6.2-14.2,11.5s-7.6,12.8-12.3,22.4L0,253.9h42.9l50.9-106.6c.6-1.5,1.2-2.6,1.6-3.2.4-.6,1.5-1,3.2-1h51.9v110.8h40.3Z"/>
        <path class="cls-1" d="M455.4,252.2l-90.6-201.3c-2.7-5.6-10.2-21.8-16-34.5-4.6-10-14.7-16.4-25.7-16.4h-103v252.2h40.3V34.6h51.9c1.7,0,2.8.3,3.2,1,.4.6,1,1.7,1.6,3.2l30.3,67.8h-57.7v34.9h73.3l49.5,110.8h42.9Z"/>
      </g>
    </g>
  </g>
</svg>